<mxfile host="app.diagrams.net" modified="2023-07-01T10:22:10.383Z" agent="Mozilla/5.0 (Windows NT 10.0; Win64; x64) AppleWebKit/537.36 (KHTML, like Gecko) Chrome/114.0.0.0 Safari/537.36" etag="7cj_4rjNdTuSSVPLzI3y" version="21.5.2" type="github">
  <diagram name="Page-1" id="NLrtFPsRYLi89kOF9EQY">
    <mxGraphModel dx="1644" dy="508" grid="1" gridSize="10" guides="1" tooltips="1" connect="1" arrows="1" fold="1" page="1" pageScale="1" pageWidth="850" pageHeight="1100" math="0" shadow="0">
      <root>
        <mxCell id="0" />
        <mxCell id="1" parent="0" />
        <mxCell id="yeGPA09dJD4qr3ePd7-E-1" value="&lt;span style=&quot;font-size: 16px;&quot;&gt;&lt;b&gt;h&lt;/b&gt;&lt;sub style=&quot;font-size: 12px;&quot;&gt;t&lt;/sub&gt;&lt;/span&gt;" style="ellipse;whiteSpace=wrap;html=1;aspect=fixed;" parent="1" vertex="1">
          <mxGeometry x="95.12" y="80" width="80" height="80" as="geometry" />
        </mxCell>
        <mxCell id="yeGPA09dJD4qr3ePd7-E-3" value="" style="endArrow=classic;html=1;rounded=0;entryX=0;entryY=0.5;entryDx=0;entryDy=0;" parent="1" target="yeGPA09dJD4qr3ePd7-E-1" edge="1">
          <mxGeometry width="50" height="50" relative="1" as="geometry">
            <mxPoint x="-14.879999999999995" y="120" as="sourcePoint" />
            <mxPoint x="185.12" y="40" as="targetPoint" />
            <Array as="points">
              <mxPoint x="25.120000000000005" y="120" />
              <mxPoint x="5.1200000000000045" y="120" />
            </Array>
          </mxGeometry>
        </mxCell>
        <mxCell id="yeGPA09dJD4qr3ePd7-E-4" value="&lt;b&gt;&lt;font style=&quot;font-size: 16px;&quot;&gt;X&lt;/font&gt;&lt;/b&gt;&lt;sub style=&quot;font-size: 12px;&quot;&gt;t&lt;/sub&gt;" style="edgeLabel;html=1;align=center;verticalAlign=middle;resizable=0;points=[];" parent="yeGPA09dJD4qr3ePd7-E-3" vertex="1" connectable="0">
          <mxGeometry x="0.1516" y="16" relative="1" as="geometry">
            <mxPoint x="-61" y="16" as="offset" />
          </mxGeometry>
        </mxCell>
        <mxCell id="yeGPA09dJD4qr3ePd7-E-5" value="&lt;b style=&quot;border-color: var(--border-color); color: rgb(0, 0, 0); font-family: Helvetica; font-size: 16px; font-style: normal; font-variant-ligatures: normal; font-variant-caps: normal; letter-spacing: normal; orphans: 2; text-align: center; text-indent: 0px; text-transform: none; widows: 2; word-spacing: 0px; -webkit-text-stroke-width: 0px; background-color: rgb(251, 251, 251); text-decoration-thickness: initial; text-decoration-style: initial; text-decoration-color: initial;&quot;&gt;h&lt;/b&gt;&lt;sub style=&quot;border-color: var(--border-color); color: rgb(0, 0, 0); font-family: Helvetica; font-style: normal; font-variant-ligatures: normal; font-variant-caps: normal; font-weight: 400; letter-spacing: normal; orphans: 2; text-align: center; text-indent: 0px; text-transform: none; widows: 2; word-spacing: 0px; -webkit-text-stroke-width: 0px; background-color: rgb(251, 251, 251); text-decoration-thickness: initial; text-decoration-style: initial; text-decoration-color: initial;&quot;&gt;&lt;font style=&quot;font-size: 12px;&quot;&gt;t-1&lt;/font&gt;&lt;/sub&gt;" style="text;whiteSpace=wrap;html=1;" parent="1" vertex="1">
          <mxGeometry x="172.12" y="75" width="30" height="30" as="geometry" />
        </mxCell>
        <mxCell id="yeGPA09dJD4qr3ePd7-E-6" value="" style="endArrow=classic;html=1;rounded=0;exitX=1;exitY=0.5;exitDx=0;exitDy=0;" parent="1" source="yeGPA09dJD4qr3ePd7-E-1" edge="1">
          <mxGeometry width="50" height="50" relative="1" as="geometry">
            <mxPoint x="275.12" y="150" as="sourcePoint" />
            <mxPoint x="275.12" y="120" as="targetPoint" />
            <Array as="points" />
          </mxGeometry>
        </mxCell>
        <mxCell id="yeGPA09dJD4qr3ePd7-E-9" value="&lt;span style=&quot;vertical-align: sub;&quot;&gt;&lt;b style=&quot;&quot;&gt;&lt;span style=&quot;font-size: 16px;&quot;&gt;Y&lt;/span&gt;&lt;span style=&quot;font-size: 12.5px;&quot;&gt;t&lt;/span&gt;&lt;/b&gt;&lt;/span&gt;" style="edgeLabel;html=1;align=center;verticalAlign=middle;resizable=0;points=[];" parent="1" vertex="1" connectable="0">
          <mxGeometry x="75.12094550772628" y="129.99967218341914" as="geometry">
            <mxPoint x="214" y="-10" as="offset" />
          </mxGeometry>
        </mxCell>
        <mxCell id="yeGPA09dJD4qr3ePd7-E-10" value="" style="curved=1;endArrow=classic;html=1;rounded=0;exitX=1;exitY=0;exitDx=0;exitDy=0;entryX=0;entryY=0;entryDx=0;entryDy=0;" parent="1" source="yeGPA09dJD4qr3ePd7-E-1" target="yeGPA09dJD4qr3ePd7-E-1" edge="1">
          <mxGeometry width="50" height="50" relative="1" as="geometry">
            <mxPoint x="-24.879999999999995" y="90" as="sourcePoint" />
            <mxPoint x="25.120000000000005" y="40" as="targetPoint" />
            <Array as="points">
              <mxPoint x="195.12" y="60" />
              <mxPoint x="125.12" y="40" />
              <mxPoint x="85.12" y="60" />
            </Array>
          </mxGeometry>
        </mxCell>
        <mxCell id="yeGPA09dJD4qr3ePd7-E-11" value="&lt;sub style=&quot;&quot;&gt;&lt;b style=&quot;&quot;&gt;&lt;i&gt;&lt;span style=&quot;font-size: 16px;&quot;&gt;W&lt;/span&gt;&lt;span style=&quot;font-size: 12px;&quot;&gt;x&lt;/span&gt;&lt;/i&gt;&lt;/b&gt;&lt;/sub&gt;" style="edgeLabel;html=1;align=center;verticalAlign=middle;resizable=0;points=[];" parent="1" vertex="1" connectable="0">
          <mxGeometry x="-21.673103448275924" y="127.99999999999994" as="geometry">
            <mxPoint x="64" y="-20" as="offset" />
          </mxGeometry>
        </mxCell>
        <mxCell id="yeGPA09dJD4qr3ePd7-E-12" value="&lt;sub style=&quot;&quot;&gt;&lt;b style=&quot;&quot;&gt;&lt;i&gt;&lt;span style=&quot;font-size: 16px;&quot;&gt;W&lt;/span&gt;&lt;span style=&quot;font-size: 12px;&quot;&gt;o&lt;/span&gt;&lt;/i&gt;&lt;/b&gt;&lt;/sub&gt;" style="edgeLabel;html=1;align=center;verticalAlign=middle;resizable=0;points=[];" parent="1" vertex="1" connectable="0">
          <mxGeometry x="162.11689655172404" y="127.99999999999994" as="geometry">
            <mxPoint x="64" y="-20" as="offset" />
          </mxGeometry>
        </mxCell>
        <mxCell id="yeGPA09dJD4qr3ePd7-E-13" value="&lt;sub style=&quot;&quot;&gt;&lt;b style=&quot;&quot;&gt;&lt;i&gt;&lt;span style=&quot;font-size: 16px;&quot;&gt;W&lt;/span&gt;&lt;span style=&quot;font-size: 12px;&quot;&gt;h&lt;/span&gt;&lt;/i&gt;&lt;/b&gt;&lt;/sub&gt;" style="edgeLabel;html=1;align=center;verticalAlign=middle;resizable=0;points=[];" parent="1" vertex="1" connectable="0">
          <mxGeometry x="70.11689655172404" y="52.99999999999994" as="geometry">
            <mxPoint x="64" y="-20" as="offset" />
          </mxGeometry>
        </mxCell>
        <mxCell id="NeNG-d02GM8CZWVQfQ4p-1" value="&lt;span style=&quot;font-size: 16px;&quot;&gt;&lt;b&gt;h&lt;/b&gt;&lt;sub style=&quot;font-size: 12px;&quot;&gt;t&lt;/sub&gt;&lt;/span&gt;" style="ellipse;whiteSpace=wrap;html=1;aspect=fixed;" parent="1" vertex="1">
          <mxGeometry x="47" y="280" width="80" height="80" as="geometry" />
        </mxCell>
        <mxCell id="NeNG-d02GM8CZWVQfQ4p-4" value="&lt;b style=&quot;border-color: var(--border-color); color: rgb(0, 0, 0); font-family: Helvetica; font-size: 16px; font-style: normal; font-variant-ligatures: normal; font-variant-caps: normal; letter-spacing: normal; orphans: 2; text-align: center; text-indent: 0px; text-transform: none; widows: 2; word-spacing: 0px; -webkit-text-stroke-width: 0px; background-color: rgb(251, 251, 251); text-decoration-thickness: initial; text-decoration-style: initial; text-decoration-color: initial;&quot;&gt;h&lt;/b&gt;&lt;sub style=&quot;border-color: var(--border-color); color: rgb(0, 0, 0); font-family: Helvetica; font-style: normal; font-variant-ligatures: normal; font-variant-caps: normal; font-weight: 400; letter-spacing: normal; orphans: 2; text-align: center; text-indent: 0px; text-transform: none; widows: 2; word-spacing: 0px; -webkit-text-stroke-width: 0px; background-color: rgb(251, 251, 251); text-decoration-thickness: initial; text-decoration-style: initial; text-decoration-color: initial;&quot;&gt;&lt;font style=&quot;font-size: 12px;&quot;&gt;t-1&lt;/font&gt;&lt;/sub&gt;" style="text;whiteSpace=wrap;html=1;" parent="1" vertex="1">
          <mxGeometry x="29" y="258" width="30" height="30" as="geometry" />
        </mxCell>
        <mxCell id="NeNG-d02GM8CZWVQfQ4p-5" value="" style="endArrow=classic;html=1;rounded=0;exitX=0.5;exitY=0;exitDx=0;exitDy=0;" parent="1" source="NeNG-d02GM8CZWVQfQ4p-1" edge="1">
          <mxGeometry width="50" height="50" relative="1" as="geometry">
            <mxPoint x="227" y="350" as="sourcePoint" />
            <mxPoint x="87" y="220" as="targetPoint" />
            <Array as="points" />
          </mxGeometry>
        </mxCell>
        <mxCell id="NeNG-d02GM8CZWVQfQ4p-6" value="&lt;span style=&quot;vertical-align: sub;&quot;&gt;&lt;b style=&quot;&quot;&gt;&lt;span style=&quot;font-size: 16px;&quot;&gt;Y&lt;/span&gt;&lt;span style=&quot;font-size: 12.5px;&quot;&gt;t&lt;/span&gt;&lt;/b&gt;&lt;/span&gt;" style="edgeLabel;html=1;align=center;verticalAlign=middle;resizable=0;points=[];" parent="1" vertex="1" connectable="0">
          <mxGeometry x="-129.99905449227373" y="217.99967218341914" as="geometry">
            <mxPoint x="214" y="-10" as="offset" />
          </mxGeometry>
        </mxCell>
        <mxCell id="NeNG-d02GM8CZWVQfQ4p-7" value="" style="curved=1;endArrow=classic;html=1;rounded=0;exitX=0;exitY=0;exitDx=0;exitDy=0;entryX=0;entryY=1;entryDx=0;entryDy=0;" parent="1" source="NeNG-d02GM8CZWVQfQ4p-1" target="NeNG-d02GM8CZWVQfQ4p-1" edge="1">
          <mxGeometry width="50" height="50" relative="1" as="geometry">
            <mxPoint x="-73" y="290" as="sourcePoint" />
            <mxPoint x="-23" y="240" as="targetPoint" />
            <Array as="points">
              <mxPoint x="17" y="280" />
              <mxPoint x="-23" y="300" />
              <mxPoint x="7" y="380" />
            </Array>
          </mxGeometry>
        </mxCell>
        <mxCell id="NeNG-d02GM8CZWVQfQ4p-8" value="&lt;sub style=&quot;&quot;&gt;&lt;span style=&quot;&quot;&gt;&lt;span&gt;&lt;span style=&quot;font-size: 16px;&quot;&gt;W&lt;/span&gt;&lt;span style=&quot;font-size: 12px;&quot;&gt;x&lt;/span&gt;&lt;/span&gt;&lt;/span&gt;&lt;/sub&gt;" style="edgeLabel;html=1;align=center;verticalAlign=middle;resizable=0;points=[];fontFamily=Courier New;fontStyle=3" parent="1" vertex="1" connectable="0">
          <mxGeometry x="2.9968965517240775" y="419.99999999999994" as="geometry">
            <mxPoint x="64" y="-20" as="offset" />
          </mxGeometry>
        </mxCell>
        <mxCell id="NeNG-d02GM8CZWVQfQ4p-9" value="&lt;sub style=&quot;&quot;&gt;&lt;b style=&quot;&quot;&gt;&lt;i&gt;&lt;span style=&quot;font-size: 16px;&quot;&gt;W&lt;/span&gt;&lt;span style=&quot;font-size: 12px;&quot;&gt;o&lt;/span&gt;&lt;/i&gt;&lt;/b&gt;&lt;/sub&gt;" style="edgeLabel;html=1;align=center;verticalAlign=middle;resizable=0;points=[];" parent="1" vertex="1" connectable="0">
          <mxGeometry x="4.996896551724035" y="269.99999999999994" as="geometry">
            <mxPoint x="64" y="-20" as="offset" />
          </mxGeometry>
        </mxCell>
        <mxCell id="NeNG-d02GM8CZWVQfQ4p-10" value="&lt;sub style=&quot;&quot;&gt;&lt;b style=&quot;&quot;&gt;&lt;i&gt;&lt;span style=&quot;font-size: 16px;&quot;&gt;W&lt;/span&gt;&lt;span style=&quot;font-size: 12px;&quot;&gt;h&lt;/span&gt;&lt;/i&gt;&lt;/b&gt;&lt;/sub&gt;" style="edgeLabel;html=1;align=center;verticalAlign=middle;resizable=0;points=[];" parent="1" vertex="1" connectable="0">
          <mxGeometry x="-92.00310344827597" y="341.99999999999994" as="geometry">
            <mxPoint x="64" y="-20" as="offset" />
          </mxGeometry>
        </mxCell>
        <mxCell id="NeNG-d02GM8CZWVQfQ4p-11" value="" style="endArrow=classic;html=1;rounded=0;entryX=0.5;entryY=1;entryDx=0;entryDy=0;" parent="1" target="NeNG-d02GM8CZWVQfQ4p-1" edge="1">
          <mxGeometry width="50" height="50" relative="1" as="geometry">
            <mxPoint x="87" y="430" as="sourcePoint" />
            <mxPoint x="250" y="250" as="targetPoint" />
          </mxGeometry>
        </mxCell>
        <mxCell id="NeNG-d02GM8CZWVQfQ4p-12" value="&lt;span style=&quot;font-size: 16px; font-weight: normal;&quot;&gt;x&lt;/span&gt;&lt;sub style=&quot;font-size: 12px; font-weight: normal;&quot;&gt;t&lt;/sub&gt;" style="edgeLabel;html=1;align=center;verticalAlign=middle;resizable=0;points=[];fontFamily=Courier New;fontStyle=3" parent="1" vertex="1" connectable="0">
          <mxGeometry x="87" y="442" as="geometry">
            <mxPoint x="-3" y="-6" as="offset" />
          </mxGeometry>
        </mxCell>
        <mxCell id="NeNG-d02GM8CZWVQfQ4p-15" value="&lt;span style=&quot;font-size: 16px;&quot;&gt;&lt;b&gt;h&lt;/b&gt;&lt;sub style=&quot;font-size: 12px;&quot;&gt;t&lt;/sub&gt;&lt;/span&gt;" style="ellipse;whiteSpace=wrap;html=1;aspect=fixed;" parent="1" vertex="1">
          <mxGeometry x="286" y="278" width="80" height="80" as="geometry" />
        </mxCell>
        <mxCell id="NeNG-d02GM8CZWVQfQ4p-16" value="&lt;b style=&quot;border-color: var(--border-color); color: rgb(0, 0, 0); font-family: Helvetica; font-size: 16px; font-style: normal; font-variant-ligatures: normal; font-variant-caps: normal; letter-spacing: normal; orphans: 2; text-align: center; text-indent: 0px; text-transform: none; widows: 2; word-spacing: 0px; -webkit-text-stroke-width: 0px; background-color: rgb(251, 251, 251); text-decoration-thickness: initial; text-decoration-style: initial; text-decoration-color: initial;&quot;&gt;h&lt;sub&gt;0&lt;/sub&gt;&lt;/b&gt;" style="text;whiteSpace=wrap;html=1;" parent="1" vertex="1">
          <mxGeometry x="204" y="303" width="30" height="30" as="geometry" />
        </mxCell>
        <mxCell id="NeNG-d02GM8CZWVQfQ4p-17" value="" style="endArrow=classic;html=1;rounded=0;exitX=0.5;exitY=0;exitDx=0;exitDy=0;" parent="1" source="NeNG-d02GM8CZWVQfQ4p-15" edge="1">
          <mxGeometry width="50" height="50" relative="1" as="geometry">
            <mxPoint x="466" y="348" as="sourcePoint" />
            <mxPoint x="326" y="218" as="targetPoint" />
            <Array as="points" />
          </mxGeometry>
        </mxCell>
        <mxCell id="NeNG-d02GM8CZWVQfQ4p-19" value="&lt;sub style=&quot;&quot;&gt;&lt;span style=&quot;&quot;&gt;&lt;span&gt;&lt;span style=&quot;font-size: 16px;&quot;&gt;W&lt;/span&gt;&lt;span style=&quot;font-size: 12px;&quot;&gt;x&lt;/span&gt;&lt;/span&gt;&lt;/span&gt;&lt;/sub&gt;" style="edgeLabel;html=1;align=center;verticalAlign=middle;resizable=0;points=[];fontFamily=Courier New;fontStyle=3" parent="1" vertex="1" connectable="0">
          <mxGeometry x="241.9968965517241" y="418" as="geometry">
            <mxPoint x="64" y="-20" as="offset" />
          </mxGeometry>
        </mxCell>
        <mxCell id="NeNG-d02GM8CZWVQfQ4p-20" value="&lt;sub style=&quot;&quot;&gt;&lt;b style=&quot;&quot;&gt;&lt;i&gt;&lt;span style=&quot;font-size: 16px;&quot;&gt;W&lt;/span&gt;&lt;span style=&quot;font-size: 12px;&quot;&gt;o&lt;/span&gt;&lt;/i&gt;&lt;/b&gt;&lt;/sub&gt;" style="edgeLabel;html=1;align=center;verticalAlign=middle;resizable=0;points=[];" parent="1" vertex="1" connectable="0">
          <mxGeometry x="243.99689655172403" y="267.99999999999994" as="geometry">
            <mxPoint x="64" y="-20" as="offset" />
          </mxGeometry>
        </mxCell>
        <mxCell id="NeNG-d02GM8CZWVQfQ4p-22" value="" style="endArrow=classic;html=1;rounded=0;entryX=0.5;entryY=1;entryDx=0;entryDy=0;" parent="1" target="NeNG-d02GM8CZWVQfQ4p-15" edge="1">
          <mxGeometry width="50" height="50" relative="1" as="geometry">
            <mxPoint x="326" y="428" as="sourcePoint" />
            <mxPoint x="489" y="248" as="targetPoint" />
          </mxGeometry>
        </mxCell>
        <mxCell id="NeNG-d02GM8CZWVQfQ4p-23" value="&lt;span&gt;&lt;font style=&quot;font-size: 16px;&quot;&gt;X&lt;/font&gt;&lt;font style=&quot;font-size: 12px;&quot;&gt;1&lt;/font&gt;&lt;/span&gt;" style="edgeLabel;html=1;align=center;verticalAlign=middle;resizable=0;points=[];fontFamily=Courier New;fontStyle=3" parent="1" vertex="1" connectable="0">
          <mxGeometry x="334" y="442" as="geometry">
            <mxPoint x="-7" y="-4" as="offset" />
          </mxGeometry>
        </mxCell>
        <mxCell id="NeNG-d02GM8CZWVQfQ4p-24" value="" style="endArrow=classic;html=1;rounded=0;entryX=0;entryY=0.5;entryDx=0;entryDy=0;exitX=1;exitY=0.5;exitDx=0;exitDy=0;" parent="1" source="NeNG-d02GM8CZWVQfQ4p-16" target="NeNG-d02GM8CZWVQfQ4p-15" edge="1">
          <mxGeometry width="50" height="50" relative="1" as="geometry">
            <mxPoint x="217" y="320" as="sourcePoint" />
            <mxPoint x="317" y="250" as="targetPoint" />
          </mxGeometry>
        </mxCell>
        <mxCell id="NeNG-d02GM8CZWVQfQ4p-25" value="&lt;span&gt;&lt;font style=&quot;font-size: 16px;&quot;&gt;Y&lt;/font&gt;&lt;font style=&quot;font-size: 12px;&quot;&gt;1&lt;/font&gt;&lt;/span&gt;" style="edgeLabel;html=1;align=center;verticalAlign=middle;resizable=0;points=[];fontFamily=Courier New;fontStyle=3" parent="1" vertex="1" connectable="0">
          <mxGeometry x="340" y="458" as="geometry">
            <mxPoint x="-16" y="-254" as="offset" />
          </mxGeometry>
        </mxCell>
        <mxCell id="NeNG-d02GM8CZWVQfQ4p-27" value="&lt;span style=&quot;font-size: 16px;&quot;&gt;&lt;b&gt;h&lt;/b&gt;&lt;sub style=&quot;font-size: 12px;&quot;&gt;t&lt;/sub&gt;&lt;/span&gt;" style="ellipse;whiteSpace=wrap;html=1;aspect=fixed;" parent="1" vertex="1">
          <mxGeometry x="418" y="278" width="80" height="80" as="geometry" />
        </mxCell>
        <mxCell id="NeNG-d02GM8CZWVQfQ4p-28" value="" style="endArrow=classic;html=1;rounded=0;exitX=0.5;exitY=0;exitDx=0;exitDy=0;" parent="1" source="NeNG-d02GM8CZWVQfQ4p-27" edge="1">
          <mxGeometry width="50" height="50" relative="1" as="geometry">
            <mxPoint x="598" y="348" as="sourcePoint" />
            <mxPoint x="458" y="218" as="targetPoint" />
            <Array as="points" />
          </mxGeometry>
        </mxCell>
        <mxCell id="NeNG-d02GM8CZWVQfQ4p-29" value="&lt;sub style=&quot;&quot;&gt;&lt;span style=&quot;&quot;&gt;&lt;span&gt;&lt;span style=&quot;font-size: 16px;&quot;&gt;W&lt;/span&gt;&lt;span style=&quot;font-size: 12px;&quot;&gt;x&lt;/span&gt;&lt;/span&gt;&lt;/span&gt;&lt;/sub&gt;" style="edgeLabel;html=1;align=center;verticalAlign=middle;resizable=0;points=[];fontFamily=Courier New;fontStyle=3" parent="1" vertex="1" connectable="0">
          <mxGeometry x="373.9968965517241" y="418" as="geometry">
            <mxPoint x="64" y="-20" as="offset" />
          </mxGeometry>
        </mxCell>
        <mxCell id="NeNG-d02GM8CZWVQfQ4p-30" value="&lt;sub style=&quot;&quot;&gt;&lt;b style=&quot;&quot;&gt;&lt;i&gt;&lt;span style=&quot;font-size: 16px;&quot;&gt;W&lt;/span&gt;&lt;span style=&quot;font-size: 12px;&quot;&gt;o&lt;/span&gt;&lt;/i&gt;&lt;/b&gt;&lt;/sub&gt;" style="edgeLabel;html=1;align=center;verticalAlign=middle;resizable=0;points=[];" parent="1" vertex="1" connectable="0">
          <mxGeometry x="375.99689655172403" y="267.99999999999994" as="geometry">
            <mxPoint x="64" y="-20" as="offset" />
          </mxGeometry>
        </mxCell>
        <mxCell id="NeNG-d02GM8CZWVQfQ4p-31" value="" style="endArrow=classic;html=1;rounded=0;entryX=0.5;entryY=1;entryDx=0;entryDy=0;" parent="1" target="NeNG-d02GM8CZWVQfQ4p-27" edge="1">
          <mxGeometry width="50" height="50" relative="1" as="geometry">
            <mxPoint x="458" y="428" as="sourcePoint" />
            <mxPoint x="621" y="248" as="targetPoint" />
          </mxGeometry>
        </mxCell>
        <mxCell id="NeNG-d02GM8CZWVQfQ4p-32" value="&lt;span&gt;&lt;font style=&quot;font-size: 16px;&quot;&gt;X&lt;/font&gt;&lt;font style=&quot;font-size: 12px;&quot;&gt;2&lt;/font&gt;&lt;/span&gt;" style="edgeLabel;html=1;align=center;verticalAlign=middle;resizable=0;points=[];fontFamily=Courier New;fontStyle=3" parent="1" vertex="1" connectable="0">
          <mxGeometry x="457" y="442" as="geometry">
            <mxPoint x="1" y="-2" as="offset" />
          </mxGeometry>
        </mxCell>
        <mxCell id="NeNG-d02GM8CZWVQfQ4p-33" value="" style="endArrow=classic;html=1;rounded=0;entryX=0;entryY=0.5;entryDx=0;entryDy=0;exitX=1;exitY=0.5;exitDx=0;exitDy=0;" parent="1" target="NeNG-d02GM8CZWVQfQ4p-27" edge="1">
          <mxGeometry width="50" height="50" relative="1" as="geometry">
            <mxPoint x="366" y="318" as="sourcePoint" />
            <mxPoint x="449" y="250" as="targetPoint" />
          </mxGeometry>
        </mxCell>
        <mxCell id="NeNG-d02GM8CZWVQfQ4p-34" value="&lt;span&gt;&lt;font style=&quot;font-size: 16px;&quot;&gt;Y&lt;/font&gt;&lt;font style=&quot;font-size: 12px;&quot;&gt;2&lt;/font&gt;&lt;/span&gt;" style="edgeLabel;html=1;align=center;verticalAlign=middle;resizable=0;points=[];fontFamily=Courier New;fontStyle=3" parent="1" vertex="1" connectable="0">
          <mxGeometry x="472" y="458" as="geometry">
            <mxPoint x="-16" y="-254" as="offset" />
          </mxGeometry>
        </mxCell>
        <mxCell id="NeNG-d02GM8CZWVQfQ4p-35" value="&lt;font style=&quot;&quot;&gt;&lt;b style=&quot;&quot;&gt;&lt;i style=&quot;&quot;&gt;&lt;span style=&quot;font-size: 16px;&quot;&gt;W&lt;/span&gt;&lt;span style=&quot;font-size: 10px;&quot;&gt;h&lt;/span&gt;&lt;/i&gt;&lt;/b&gt;&lt;/font&gt;" style="text;strokeColor=none;align=center;fillColor=none;html=1;verticalAlign=middle;whiteSpace=wrap;rounded=0;" parent="1" vertex="1">
          <mxGeometry x="226" y="288" width="60" height="30" as="geometry" />
        </mxCell>
        <mxCell id="NeNG-d02GM8CZWVQfQ4p-36" value="&lt;font style=&quot;&quot;&gt;&lt;b style=&quot;&quot;&gt;&lt;i style=&quot;&quot;&gt;&lt;span style=&quot;font-size: 16px;&quot;&gt;W&lt;/span&gt;&lt;span style=&quot;font-size: 10px;&quot;&gt;h&lt;/span&gt;&lt;/i&gt;&lt;/b&gt;&lt;/font&gt;" style="text;strokeColor=none;align=center;fillColor=none;html=1;verticalAlign=middle;whiteSpace=wrap;rounded=0;" parent="1" vertex="1">
          <mxGeometry x="360" y="288" width="60" height="30" as="geometry" />
        </mxCell>
        <mxCell id="NeNG-d02GM8CZWVQfQ4p-37" value="&lt;span style=&quot;font-size: 16px;&quot;&gt;&lt;b&gt;h&lt;/b&gt;&lt;sub style=&quot;font-size: 12px;&quot;&gt;t&lt;/sub&gt;&lt;/span&gt;" style="ellipse;whiteSpace=wrap;html=1;aspect=fixed;" parent="1" vertex="1">
          <mxGeometry x="550" y="278" width="80" height="80" as="geometry" />
        </mxCell>
        <mxCell id="NeNG-d02GM8CZWVQfQ4p-38" value="" style="endArrow=classic;html=1;rounded=0;exitX=0.5;exitY=0;exitDx=0;exitDy=0;" parent="1" source="NeNG-d02GM8CZWVQfQ4p-37" edge="1">
          <mxGeometry width="50" height="50" relative="1" as="geometry">
            <mxPoint x="730" y="348" as="sourcePoint" />
            <mxPoint x="590" y="218" as="targetPoint" />
            <Array as="points" />
          </mxGeometry>
        </mxCell>
        <mxCell id="NeNG-d02GM8CZWVQfQ4p-39" value="&lt;sub style=&quot;&quot;&gt;&lt;span style=&quot;&quot;&gt;&lt;span&gt;&lt;span style=&quot;font-size: 16px;&quot;&gt;W&lt;/span&gt;&lt;span style=&quot;font-size: 12px;&quot;&gt;x&lt;/span&gt;&lt;/span&gt;&lt;/span&gt;&lt;/sub&gt;" style="edgeLabel;html=1;align=center;verticalAlign=middle;resizable=0;points=[];fontFamily=Courier New;fontStyle=3" parent="1" vertex="1" connectable="0">
          <mxGeometry x="505.99689655172415" y="418" as="geometry">
            <mxPoint x="64" y="-20" as="offset" />
          </mxGeometry>
        </mxCell>
        <mxCell id="NeNG-d02GM8CZWVQfQ4p-40" value="&lt;sub style=&quot;&quot;&gt;&lt;b style=&quot;&quot;&gt;&lt;i&gt;&lt;span style=&quot;font-size: 16px;&quot;&gt;W&lt;/span&gt;&lt;span style=&quot;font-size: 12px;&quot;&gt;o&lt;/span&gt;&lt;/i&gt;&lt;/b&gt;&lt;/sub&gt;" style="edgeLabel;html=1;align=center;verticalAlign=middle;resizable=0;points=[];" parent="1" vertex="1" connectable="0">
          <mxGeometry x="507.99689655172403" y="267.99999999999994" as="geometry">
            <mxPoint x="64" y="-20" as="offset" />
          </mxGeometry>
        </mxCell>
        <mxCell id="NeNG-d02GM8CZWVQfQ4p-41" value="" style="endArrow=classic;html=1;rounded=0;entryX=0.5;entryY=1;entryDx=0;entryDy=0;" parent="1" target="NeNG-d02GM8CZWVQfQ4p-37" edge="1">
          <mxGeometry width="50" height="50" relative="1" as="geometry">
            <mxPoint x="590" y="428" as="sourcePoint" />
            <mxPoint x="753" y="248" as="targetPoint" />
          </mxGeometry>
        </mxCell>
        <mxCell id="NeNG-d02GM8CZWVQfQ4p-42" value="&lt;span&gt;&lt;font style=&quot;font-size: 16px;&quot;&gt;X&lt;/font&gt;&lt;font style=&quot;font-size: 12px;&quot;&gt;3&lt;/font&gt;&lt;/span&gt;" style="edgeLabel;html=1;align=center;verticalAlign=middle;resizable=0;points=[];fontFamily=Courier New;fontStyle=3" parent="1" vertex="1" connectable="0">
          <mxGeometry x="586" y="439" as="geometry">
            <mxPoint x="5" as="offset" />
          </mxGeometry>
        </mxCell>
        <mxCell id="NeNG-d02GM8CZWVQfQ4p-43" value="" style="endArrow=classic;html=1;rounded=0;entryX=0;entryY=0.5;entryDx=0;entryDy=0;exitX=1;exitY=0.5;exitDx=0;exitDy=0;" parent="1" target="NeNG-d02GM8CZWVQfQ4p-37" edge="1">
          <mxGeometry width="50" height="50" relative="1" as="geometry">
            <mxPoint x="498" y="318" as="sourcePoint" />
            <mxPoint x="581" y="250" as="targetPoint" />
          </mxGeometry>
        </mxCell>
        <mxCell id="NeNG-d02GM8CZWVQfQ4p-44" value="&lt;span&gt;&lt;font style=&quot;font-size: 16px;&quot;&gt;Y&lt;/font&gt;&lt;font style=&quot;font-size: 12px;&quot;&gt;3&lt;/font&gt;&lt;/span&gt;" style="edgeLabel;html=1;align=center;verticalAlign=middle;resizable=0;points=[];fontFamily=Courier New;fontStyle=3" parent="1" vertex="1" connectable="0">
          <mxGeometry x="604" y="458" as="geometry">
            <mxPoint x="-16" y="-254" as="offset" />
          </mxGeometry>
        </mxCell>
        <mxCell id="NeNG-d02GM8CZWVQfQ4p-45" value="&lt;font style=&quot;&quot;&gt;&lt;b style=&quot;&quot;&gt;&lt;i style=&quot;&quot;&gt;&lt;span style=&quot;font-size: 16px;&quot;&gt;W&lt;/span&gt;&lt;span style=&quot;font-size: 10px;&quot;&gt;h&lt;/span&gt;&lt;/i&gt;&lt;/b&gt;&lt;/font&gt;" style="text;strokeColor=none;align=center;fillColor=none;html=1;verticalAlign=middle;whiteSpace=wrap;rounded=0;" parent="1" vertex="1">
          <mxGeometry x="493" y="289" width="60" height="30" as="geometry" />
        </mxCell>
        <mxCell id="NeNG-d02GM8CZWVQfQ4p-47" value="" style="endArrow=classic;html=1;rounded=0;exitX=1;exitY=0.5;exitDx=0;exitDy=0;entryX=0;entryY=0.5;entryDx=0;entryDy=0;" parent="1" source="NeNG-d02GM8CZWVQfQ4p-37" target="NeNG-d02GM8CZWVQfQ4p-48" edge="1">
          <mxGeometry width="50" height="50" relative="1" as="geometry">
            <mxPoint x="437" y="300" as="sourcePoint" />
            <mxPoint x="677" y="310" as="targetPoint" />
          </mxGeometry>
        </mxCell>
        <mxCell id="NeNG-d02GM8CZWVQfQ4p-48" value="&lt;b style=&quot;border-color: var(--border-color); color: rgb(0, 0, 0); font-family: Helvetica; font-size: 16px; font-style: normal; font-variant-ligatures: normal; font-variant-caps: normal; letter-spacing: normal; orphans: 2; text-align: center; text-indent: 0px; text-transform: none; widows: 2; word-spacing: 0px; -webkit-text-stroke-width: 0px; background-color: rgb(251, 251, 251); text-decoration-thickness: initial; text-decoration-style: initial; text-decoration-color: initial;&quot;&gt;h&lt;/b&gt;&lt;b style=&quot;border-color: var(--border-color); color: rgb(0, 0, 0); font-family: Helvetica; font-style: normal; font-variant-ligatures: normal; font-variant-caps: normal; letter-spacing: normal; orphans: 2; text-align: center; text-indent: 0px; text-transform: none; widows: 2; word-spacing: 0px; -webkit-text-stroke-width: 0px; background-color: rgb(251, 251, 251); text-decoration-thickness: initial; text-decoration-style: initial; text-decoration-color: initial; font-size: 13.3333px;&quot;&gt;3&lt;/b&gt;" style="text;whiteSpace=wrap;html=1;" parent="1" vertex="1">
          <mxGeometry x="678" y="303" width="30" height="30" as="geometry" />
        </mxCell>
        <mxCell id="NeNG-d02GM8CZWVQfQ4p-49" value="&lt;font style=&quot;&quot;&gt;&lt;b style=&quot;&quot;&gt;&lt;i style=&quot;&quot;&gt;&lt;span style=&quot;font-size: 16px;&quot;&gt;W&lt;/span&gt;&lt;span style=&quot;font-size: 10px;&quot;&gt;h&lt;/span&gt;&lt;/i&gt;&lt;/b&gt;&lt;/font&gt;" style="text;strokeColor=none;align=center;fillColor=none;html=1;verticalAlign=middle;whiteSpace=wrap;rounded=0;" parent="1" vertex="1">
          <mxGeometry x="622" y="291" width="60" height="30" as="geometry" />
        </mxCell>
        <mxCell id="NeNG-d02GM8CZWVQfQ4p-50" value="" style="shape=flexArrow;endArrow=classic;html=1;rounded=0;" parent="1" edge="1">
          <mxGeometry width="50" height="50" relative="1" as="geometry">
            <mxPoint x="137" y="320" as="sourcePoint" />
            <mxPoint x="197" y="320" as="targetPoint" />
          </mxGeometry>
        </mxCell>
        <mxCell id="NeNG-d02GM8CZWVQfQ4p-51" value="&lt;font style=&quot;font-size: 12px;&quot;&gt;Unfold&lt;/font&gt;" style="text;strokeColor=none;align=center;fillColor=none;html=1;verticalAlign=middle;whiteSpace=wrap;rounded=0;" parent="1" vertex="1">
          <mxGeometry x="127" y="291" width="60" height="29" as="geometry" />
        </mxCell>
        <mxCell id="BuAD_H3KEMXBVgpUa2TR-1" value="RNN Cell" style="whiteSpace=wrap;html=1;aspect=fixed;" vertex="1" parent="1">
          <mxGeometry x="80" y="580" width="80" height="80" as="geometry" />
        </mxCell>
        <mxCell id="BuAD_H3KEMXBVgpUa2TR-2" value="" style="endArrow=classic;html=1;rounded=0;entryX=0.5;entryY=1;entryDx=0;entryDy=0;" edge="1" parent="1" target="BuAD_H3KEMXBVgpUa2TR-1">
          <mxGeometry width="50" height="50" relative="1" as="geometry">
            <mxPoint x="120" y="700" as="sourcePoint" />
            <mxPoint x="130" y="710" as="targetPoint" />
          </mxGeometry>
        </mxCell>
        <mxCell id="BuAD_H3KEMXBVgpUa2TR-6" value="&lt;b&gt;x&lt;/b&gt;&lt;sub&gt;t&lt;/sub&gt;" style="edgeLabel;html=1;align=center;verticalAlign=middle;resizable=0;points=[];fontFamily=Courier New;fontStyle=2" vertex="1" connectable="0" parent="BuAD_H3KEMXBVgpUa2TR-2">
          <mxGeometry x="0.1606" y="1" relative="1" as="geometry">
            <mxPoint x="2" y="29" as="offset" />
          </mxGeometry>
        </mxCell>
        <mxCell id="BuAD_H3KEMXBVgpUa2TR-4" value="" style="endArrow=classic;html=1;rounded=0;entryX=0;entryY=0.5;entryDx=0;entryDy=0;fontFamily=Courier New;fontStyle=3" edge="1" parent="1" target="BuAD_H3KEMXBVgpUa2TR-1">
          <mxGeometry width="50" height="50" relative="1" as="geometry">
            <mxPoint x="40" y="620" as="sourcePoint" />
            <mxPoint x="150" y="640" as="targetPoint" />
          </mxGeometry>
        </mxCell>
        <mxCell id="BuAD_H3KEMXBVgpUa2TR-5" value="S&lt;sub&gt;t-1&lt;/sub&gt;" style="edgeLabel;html=1;align=center;verticalAlign=middle;resizable=0;points=[];fontFamily=Courier New;fontStyle=3" vertex="1" connectable="0" parent="BuAD_H3KEMXBVgpUa2TR-4">
          <mxGeometry x="-0.4246" y="1" relative="1" as="geometry">
            <mxPoint x="-27" y="1" as="offset" />
          </mxGeometry>
        </mxCell>
        <mxCell id="BuAD_H3KEMXBVgpUa2TR-7" value="" style="endArrow=classic;html=1;rounded=0;exitX=1;exitY=0.5;exitDx=0;exitDy=0;fontFamily=Courier New;fontStyle=3" edge="1" parent="1" source="BuAD_H3KEMXBVgpUa2TR-1">
          <mxGeometry width="50" height="50" relative="1" as="geometry">
            <mxPoint x="200" y="650" as="sourcePoint" />
            <mxPoint x="200" y="620" as="targetPoint" />
          </mxGeometry>
        </mxCell>
        <mxCell id="BuAD_H3KEMXBVgpUa2TR-8" value="S&lt;sub&gt;t&lt;/sub&gt;" style="edgeLabel;html=1;align=center;verticalAlign=middle;resizable=0;points=[];fontFamily=Courier New;fontStyle=3" vertex="1" connectable="0" parent="BuAD_H3KEMXBVgpUa2TR-7">
          <mxGeometry x="-0.1191" relative="1" as="geometry">
            <mxPoint x="30" as="offset" />
          </mxGeometry>
        </mxCell>
        <mxCell id="BuAD_H3KEMXBVgpUa2TR-9" value="" style="endArrow=classic;html=1;rounded=0;exitX=0.5;exitY=0;exitDx=0;exitDy=0;fontFamily=Courier New;fontStyle=3" edge="1" parent="1" source="BuAD_H3KEMXBVgpUa2TR-1">
          <mxGeometry width="50" height="50" relative="1" as="geometry">
            <mxPoint x="100" y="630" as="sourcePoint" />
            <mxPoint x="120" y="530" as="targetPoint" />
          </mxGeometry>
        </mxCell>
        <mxCell id="BuAD_H3KEMXBVgpUa2TR-11" value="y&lt;sub&gt;t&lt;/sub&gt;=s&lt;sub&gt;t&lt;/sub&gt;" style="edgeLabel;html=1;align=center;verticalAlign=middle;resizable=0;points=[];fontFamily=Courier New;fontStyle=3" vertex="1" connectable="0" parent="BuAD_H3KEMXBVgpUa2TR-9">
          <mxGeometry x="-0.0122" relative="1" as="geometry">
            <mxPoint as="offset" />
          </mxGeometry>
        </mxCell>
      </root>
    </mxGraphModel>
  </diagram>
</mxfile>
